<svg width="50" height="23" viewBox="0 0 50 23" fill="none" xmlns="http://www.w3.org/2000/svg">
<g clip-path="url(#clip0_8_116)">
<path d="M34.1415 22.1742L34.396 21.2943C34.6993 20.2476 34.5865 19.2799 34.0776 18.569C33.6093 17.9142 32.829 17.5285 31.8813 17.4837L13.9321 17.2566C13.8764 17.2555 13.8218 17.2413 13.7726 17.2152C13.7233 17.1891 13.6811 17.1518 13.6489 17.1063C13.6176 17.0592 13.5975 17.0055 13.5904 16.9494C13.5835 16.8932 13.5897 16.8362 13.6086 16.7829C13.6394 16.695 13.6953 16.618 13.7693 16.5615C13.8436 16.505 13.9325 16.4714 14.0256 16.4648L32.141 16.2353C34.2899 16.1366 36.6166 14.3943 37.4311 12.2695L38.4641 9.57206C38.5065 9.45799 38.5162 9.33441 38.4922 9.21517C37.3192 3.94272 32.6102 0 26.9799 0C21.7923 0 17.3877 3.34576 15.8077 7.99618C14.7401 7.19542 13.409 6.8273 12.0813 6.96554C9.59251 7.21249 7.59148 9.21476 7.34511 11.7021C7.28196 12.3231 7.32815 12.9505 7.48196 13.5556C3.41639 13.674 0.156006 17.0024 0.156006 21.0938C0.156525 21.459 0.183511 21.8237 0.236799 22.1851C0.248563 22.2685 0.289914 22.345 0.353409 22.4005C0.416904 22.4561 0.498394 22.4869 0.58265 22.4874L33.72 22.4915C33.7231 22.4917 33.7262 22.4917 33.7294 22.4915C33.8231 22.4898 33.9138 22.4581 33.988 22.401C34.0622 22.3438 34.116 22.2644 34.1415 22.1742Z" fill="#F6821F"/>
<path d="M40.1209 9.76764C39.9546 9.76764 39.7889 9.77183 39.6238 9.78016C39.5972 9.78207 39.571 9.7878 39.5461 9.79715C39.5029 9.81193 39.4638 9.83696 39.4323 9.87011C39.4008 9.90326 39.3778 9.94356 39.3653 9.98752L38.6596 12.4235C38.3562 13.4703 38.469 14.4371 38.9783 15.148C39.4463 15.8036 40.2266 16.1883 41.1742 16.2332L45.0006 16.4628C45.0544 16.4646 45.107 16.4789 45.1544 16.5045C45.2017 16.5302 45.2423 16.5666 45.2731 16.6107C45.305 16.658 45.3252 16.7121 45.3321 16.7686C45.3392 16.8251 45.3328 16.8825 45.3136 16.9361C45.2828 17.0238 45.2269 17.1007 45.1531 17.1572C45.0792 17.2137 44.9903 17.2474 44.8975 17.2542L40.9217 17.4837C38.7631 17.5832 36.437 19.3247 35.6231 21.4495L35.3359 22.1996C35.324 22.231 35.3195 22.2647 35.3231 22.2981C35.3268 22.3315 35.3382 22.3637 35.3567 22.3917C35.3752 22.4197 35.3999 22.4431 35.4292 22.4597C35.4584 22.4761 35.4913 22.4856 35.5249 22.487C35.5285 22.487 35.5318 22.487 35.5354 22.487H49.2157C49.2953 22.4877 49.3728 22.4624 49.4366 22.4149C49.5003 22.3673 49.5468 22.3003 49.5688 22.2239C49.8112 21.3597 49.9337 20.4664 49.9328 19.5689C49.9313 14.1562 45.5389 9.76764 40.1209 9.76764Z" fill="#FBAD41"/>
</g>
<defs>
<clipPath id="clip0_8_116">
<rect width="50" height="22.6644" fill="white"/>
</clipPath>
</defs>
</svg>
