<svg width="50" height="58" viewBox="0 0 50 58" fill="none" xmlns="http://www.w3.org/2000/svg">
<g clip-path="url(#clip0_9_241)">
<path d="M35.9647 6.86598V50.0235C35.9647 54.8564 39.2954 57.5436 42.8307 57.5436C46.1004 57.5436 49.6966 55.2549 49.6966 50.0235V7.19292C49.6966 2.76887 46.4273 0 42.8307 0C39.2341 0 35.9647 3.05495 35.9647 6.86598Z" fill="#F8AB00"/>
<path d="M17.9824 28.7718V50.0235C17.9824 54.8564 21.3132 57.5436 24.8483 57.5436C28.1179 57.5436 31.7144 55.2549 31.7144 50.0235V29.0987C31.7144 24.6747 28.4448 21.9058 24.8483 21.9058C21.2519 21.9058 17.9824 24.9608 17.9824 28.7718Z" fill="#E37300"/>
<path d="M13.732 50.6777C13.732 54.4682 10.6566 57.5436 6.86598 57.5436C3.07539 57.5436 0 54.4682 0 50.6777C0 46.8871 3.07539 43.8118 6.86598 43.8118C10.6566 43.8118 13.732 46.8871 13.732 50.6777Z" fill="#E37300"/>
</g>
<defs>
<clipPath id="clip0_9_241">
<rect width="50" height="57.5758" fill="white"/>
</clipPath>
</defs>
</svg>
