<svg width="50" height="50" viewBox="0 0 50 50" fill="none" xmlns="http://www.w3.org/2000/svg">
<g clip-path="url(#clip0_10_423)">
<path d="M36.1984 17.3558L36.1803 17.3479C36.1697 17.3441 36.1594 17.3401 36.1502 17.331C36.1353 17.315 36.1242 17.2956 36.1179 17.2748C36.1115 17.2537 36.1101 17.2315 36.1136 17.2098L37.1213 11.0502L41.8466 15.7761L36.9322 17.8667C36.9187 17.8723 36.904 17.8749 36.8893 17.8746H36.8697C36.8632 17.8706 36.8568 17.8655 36.8437 17.8523C36.6607 17.6488 36.4421 17.4805 36.1984 17.3558ZM43.0524 16.9804L48.1046 22.0322C49.154 23.0827 49.6793 23.6068 49.871 24.2141C49.8996 24.304 49.9231 24.394 49.9414 24.4865L37.867 19.3734C37.8604 19.3708 37.8539 19.3682 37.8473 19.3656C37.7992 19.3461 37.7431 19.3238 37.7431 19.2743C37.7431 19.2248 37.8004 19.2014 37.8487 19.1818L37.8643 19.1754L43.0524 16.9804ZM49.7354 26.1078C49.4746 26.5979 48.9662 27.1062 48.106 27.9677L42.4097 33.6621L35.0423 32.1281L35.0031 32.1202C34.9379 32.1098 34.8688 32.0981 34.8688 32.0394C34.8409 31.7356 34.7507 31.4406 34.6037 31.1731C34.4569 30.9057 34.2565 30.6712 34.015 30.4845C33.9851 30.4545 33.9929 30.4075 34.0021 30.3645C34.0021 30.3581 34.0021 30.3516 34.0046 30.3464L35.3903 21.8406L35.3955 21.8119C35.4033 21.7469 35.415 21.6712 35.4737 21.6712C35.7707 21.6344 36.0572 21.5386 36.3168 21.3898C36.5764 21.2411 36.8039 21.042 36.9857 20.8045C36.9975 20.7915 37.0053 20.7772 37.021 20.7693C37.0627 20.7498 37.1123 20.7693 37.1553 20.7876L49.7341 26.1078H49.7354ZM41.0996 34.972L31.7325 44.3379L33.3359 34.4845L33.3385 34.4714C33.3399 34.4584 33.3425 34.4453 33.3464 34.4336C33.3594 34.4023 33.3932 34.3894 33.4258 34.3763L33.4415 34.3697C33.7926 34.22 34.1031 33.9891 34.3475 33.6959C34.3787 33.6595 34.4165 33.6243 34.4647 33.6177C34.4774 33.6158 34.49 33.6158 34.5025 33.6177L41.0984 34.9732L41.0996 34.972ZM29.7499 46.3202L28.6941 47.376L17.0213 30.508C17.017 30.5017 17.0126 30.4956 17.0082 30.4897C16.9899 30.465 16.9703 30.4401 16.9743 30.4115C16.9743 30.3906 16.9886 30.3725 17.003 30.3568L17.0159 30.3398C17.0511 30.2877 17.0812 30.2356 17.1138 30.1795L17.1399 30.1339L17.1437 30.1299C17.162 30.0987 17.1789 30.0687 17.2103 30.0517C17.2376 30.0388 17.2754 30.044 17.3054 30.0505L30.2374 32.7171C30.2737 32.7228 30.3077 32.7376 30.3365 32.7601C30.3534 32.777 30.3574 32.7953 30.3614 32.8162C30.4516 33.1575 30.6194 33.4732 30.8519 33.7389C31.0844 34.0046 31.3751 34.2129 31.7013 34.3476C31.7379 34.3659 31.7222 34.4063 31.7053 34.4493C31.6967 34.4682 31.6902 34.4879 31.6857 34.508C31.5228 35.4985 30.1254 44.0199 29.7499 46.3202ZM27.5444 48.5241C26.7662 49.2946 26.3074 49.7025 25.7886 49.8667C25.2771 50.0284 24.7281 50.0284 24.2165 49.8667C23.6092 49.6738 23.0838 49.1498 22.0345 48.0993L10.312 36.3783L13.374 31.6301C13.3883 31.6068 13.4027 31.5859 13.4261 31.569C13.4587 31.5455 13.5056 31.5558 13.5448 31.569C14.2475 31.7808 15.0021 31.7427 15.68 31.4607C15.7152 31.4476 15.7502 31.4386 15.7777 31.4633C15.7914 31.4758 15.8036 31.4898 15.8141 31.5051L27.5444 48.5255V48.5241ZM9.1819 35.2482L6.49277 32.5595L11.8033 30.2943C11.8168 30.2883 11.8315 30.2851 11.8463 30.2851C11.8906 30.2851 11.9167 30.3295 11.9401 30.3699C11.9935 30.4519 12.05 30.5319 12.1096 30.6097L12.1265 30.6305C12.1422 30.6526 12.1317 30.6748 12.1161 30.6956L9.18321 35.2482H9.1819ZM5.30266 31.3694L1.9005 27.9677C1.32174 27.3891 0.902011 26.9694 0.610025 26.6083L10.9547 28.7537C10.9677 28.756 10.9807 28.7583 10.9938 28.7601C11.0576 28.7706 11.128 28.7824 11.128 28.8423C11.128 28.9074 11.0511 28.9374 10.986 28.9623L10.956 28.9752L5.30266 31.3694ZM0.015625 24.8592C0.0274142 24.6402 0.0668312 24.4234 0.132941 24.2141C0.32586 23.6068 0.849871 23.0827 1.9005 22.0322L6.25422 17.679C8.25881 20.588 10.2688 23.4932 12.2842 26.3946C12.3194 26.4415 12.3585 26.4937 12.3182 26.5327C12.1278 26.7426 11.9375 26.972 11.8033 27.2209C11.7887 27.253 11.7663 27.2807 11.7381 27.3017C11.7211 27.3121 11.7029 27.3083 11.6833 27.3043H11.6807L0.015625 24.858V24.8592ZM7.41955 16.5138L13.271 10.6605C13.8224 10.9016 15.8258 11.7475 17.6156 12.5034C18.9713 13.0769 20.2069 13.5982 20.5955 13.7677C20.6345 13.7833 20.6697 13.799 20.6867 13.8381C20.6972 13.8615 20.6918 13.8915 20.6867 13.9163C20.594 14.3388 20.6078 14.7777 20.7267 15.1936C20.8458 15.6095 21.0662 15.9892 21.3684 16.2988C21.4075 16.3379 21.3684 16.394 21.3345 16.4421L21.3162 16.4696L15.3723 25.6751C15.3566 25.7011 15.3423 25.7234 15.3162 25.7403C15.285 25.7598 15.2406 25.7507 15.2041 25.7417C14.9729 25.681 14.7353 25.6487 14.4963 25.6452C14.2825 25.6452 14.0505 25.6842 13.8159 25.7272H13.8146C13.7885 25.7312 13.765 25.7363 13.7442 25.7208C13.7212 25.7019 13.7013 25.6795 13.6855 25.6543L7.41826 16.5138H7.41955ZM14.4559 9.47835L22.0345 1.90065C23.0838 0.85145 23.6092 0.326198 24.2165 0.134606C24.7281 -0.0271277 25.2771 -0.0271277 25.7886 0.134606C26.3961 0.326198 26.9214 0.85145 27.9707 1.90065L29.6132 3.54288L24.2231 11.8896C24.2098 11.9139 24.1915 11.9351 24.1696 11.9521C24.1371 11.9743 24.0914 11.9651 24.0524 11.9521C23.6274 11.8232 23.1774 11.7997 22.7414 11.8837C22.3053 11.9677 21.8963 12.1567 21.5496 12.4344C21.5144 12.4708 21.4623 12.45 21.4179 12.4304C20.7141 12.1242 15.2393 9.8107 14.4559 9.47835ZM30.7575 4.68722L35.7344 9.66343L34.5351 17.09V17.1095C34.5341 17.1264 34.5306 17.143 34.5248 17.1591C34.5117 17.1851 34.4856 17.1903 34.4595 17.1981C34.2031 17.2758 33.9617 17.3961 33.7452 17.5539C33.7359 17.5606 33.7272 17.568 33.7191 17.5761C33.7048 17.5917 33.6905 17.606 33.667 17.6086C33.6479 17.6092 33.6289 17.6062 33.6109 17.5996L26.0272 14.3776L26.0129 14.3711C25.9646 14.3516 25.9072 14.3281 25.9072 14.2786C25.8627 13.856 25.7246 13.4487 25.5031 13.086C25.4667 13.0261 25.4263 12.9635 25.4575 12.9023L30.7575 4.68722ZM25.6322 15.9039L32.7415 18.9147C32.7806 18.9328 32.8237 18.9498 32.8406 18.9901C32.8473 19.0145 32.8473 19.0401 32.8406 19.0645C32.8197 19.1688 32.8014 19.2874 32.8014 19.4072V19.6068C32.8014 19.6563 32.7507 19.677 32.7037 19.6967L32.6894 19.7019C31.5632 20.1828 16.8778 26.4441 16.8557 26.4441C16.8335 26.4441 16.81 26.4441 16.7879 26.422C16.7487 26.3828 16.7879 26.3281 16.8231 26.2786C16.8293 26.27 16.8354 26.2613 16.8414 26.2525L22.6836 17.2072L22.6941 17.1915C22.728 17.1368 22.7671 17.0757 22.8296 17.0757L22.8883 17.0847C23.0213 17.103 23.1386 17.1199 23.2572 17.1199C24.1435 17.1199 24.9649 16.6885 25.4601 15.9508C25.4719 15.9312 25.487 15.9135 25.5045 15.8987C25.5397 15.8726 25.5918 15.8856 25.6322 15.9039ZM17.4905 27.8752L33.4976 21.0494C33.4976 21.0494 33.521 21.0496 33.5432 21.0717C33.6306 21.159 33.7048 21.2176 33.7764 21.2725L33.8117 21.2946C33.8443 21.3129 33.8769 21.3336 33.8795 21.3676C33.8795 21.3805 33.8795 21.3885 33.8769 21.4001L32.5056 29.8225L32.5004 29.8563C32.4912 29.9214 32.4821 29.9958 32.4208 29.9958C32.0553 30.0205 31.7011 30.1339 31.3894 30.3263C31.0775 30.5185 30.8173 30.7841 30.6312 31.0998L30.6246 31.1101C30.6063 31.1401 30.5894 31.1688 30.5595 31.1844C30.5321 31.1975 30.4969 31.1923 30.4682 31.1857L17.703 28.553C17.6899 28.5504 17.5048 27.8764 17.4905 27.8752Z" fill="url(#paint0_radial_10_423)"/>
</g>
<defs>
<radialGradient id="paint0_radial_10_423" cx="0" cy="0" r="1" gradientUnits="userSpaceOnUse" gradientTransform="translate(-1.6606 24.2955) rotate(90) scale(49.9197 57.641)">
<stop stop-color="#20C6B7"/>
<stop offset="1" stop-color="#4D9ABF"/>
</radialGradient>
<clipPath id="clip0_10_423">
<rect width="50" height="50" fill="white"/>
</clipPath>
</defs>
</svg>
