<svg width="50" height="60" viewBox="0 0 50 60" fill="none" xmlns="http://www.w3.org/2000/svg">
<path d="M13.973 56.0661L14.9788 49.6776L12.7384 49.6257H2.04033L9.47494 2.48536C9.49802 2.34305 9.57302 2.21036 9.68263 2.11612C9.79225 2.02189 9.93264 1.96997 10.0788 1.96997H28.1173C34.1058 1.96997 38.2385 3.21612 40.3962 5.67574C41.4077 6.82959 42.0519 8.03536 42.3635 9.36228C42.6904 10.7546 42.6962 12.418 42.3769 14.4469L42.3538 14.595V15.895L43.3654 16.468C44.2173 16.92 44.8942 17.4373 45.4135 18.0296C46.2788 19.0161 46.8385 20.27 47.075 21.7565C47.3192 23.2853 47.2385 25.1046 46.8385 27.1642C46.3769 29.5334 45.6308 31.5969 44.6231 33.2853C43.6962 34.8411 42.5154 36.1315 41.1135 37.1315C39.775 38.0815 38.1846 38.8026 36.3865 39.2642C34.6442 39.718 32.6577 39.9469 30.4788 39.9469H29.075C28.0712 39.9469 27.0962 40.3084 26.3308 40.9565C25.5635 41.618 25.0558 42.5219 24.9 43.5103L24.7942 44.0853L23.0173 55.345L22.9365 55.7584C22.9154 55.8892 22.8788 55.9546 22.825 55.9988C22.7769 56.0392 22.7077 56.0661 22.6404 56.0661H13.973Z" fill="#253B80"/>
<path d="M44.3231 14.7443C44.2692 15.0885 44.2077 15.4404 44.1385 15.802C41.7596 28.0154 33.6212 32.2347 23.2269 32.2347H17.9347C16.6635 32.2347 15.5923 33.1577 15.3943 34.4116L12.6847 51.5962L11.9173 56.4674C11.7885 57.2904 12.4231 58.0327 13.2539 58.0327H22.6404C23.7519 58.0327 24.6962 57.225 24.8712 56.1289L24.9635 55.652L26.7308 44.4366L26.8442 43.8212C27.0173 42.7212 27.9635 41.9135 29.075 41.9135H30.4788C39.5731 41.9135 46.6923 38.2212 48.7731 27.5366C49.6423 23.0731 49.1923 19.3462 46.8923 16.725C46.1962 15.9346 45.3327 15.2789 44.3231 14.7443Z" fill="#179BD7"/>
<path d="M41.8346 13.752C41.4712 13.6463 41.0962 13.5501 40.7115 13.4636C40.325 13.379 39.9288 13.304 39.5212 13.2386C38.0942 13.0078 36.5308 12.8982 34.8558 12.8982H20.7173C20.3692 12.8982 20.0385 12.977 19.7423 13.1193C19.0904 13.4328 18.6058 14.0501 18.4885 14.8059L15.4808 33.8558L15.3942 34.4116C15.5923 33.1577 16.6635 32.2347 17.9346 32.2347H23.2269C33.6212 32.2347 41.7596 28.0135 44.1385 15.802C44.2096 15.4405 44.2692 15.0886 44.3231 14.7443C43.7212 14.4251 43.0692 14.152 42.3673 13.9193C42.1942 13.8617 42.0154 13.8059 41.8346 13.752Z" fill="#222D65"/>
<path d="M18.4884 14.8058C18.6058 14.05 19.0904 13.4327 19.7423 13.1212C20.0404 12.9788 20.3692 12.9 20.7173 12.9H34.8558C36.5308 12.9 38.0942 13.0096 39.5212 13.2404C39.9288 13.3058 40.325 13.3808 40.7115 13.4654C41.0962 13.5519 41.4712 13.6481 41.8346 13.7538C42.0154 13.8077 42.1942 13.8635 42.3692 13.9192C43.0712 14.1519 43.7231 14.4269 44.325 14.7442C45.0327 10.2308 44.3192 7.15769 41.8788 4.375C39.1885 1.31154 34.3327 0 28.1192 0H10.0808C8.81152 0 7.72883 0.923077 7.53267 2.17885L0.0192093 49.8038C-0.128868 50.7462 0.598056 51.5962 1.54806 51.5962H12.6846L15.4808 33.8558L18.4884 14.8058Z" fill="#253B80"/>
</svg>
