<svg width="50" height="50" viewBox="0 0 50 50" fill="none" xmlns="http://www.w3.org/2000/svg">
<g clip-path="url(#clip0_10_519)">
<path d="M25 50C38.8071 50 50 38.8071 50 25C50 11.1929 38.8071 0 25 0C11.1929 0 0 11.1929 0 25C0 38.8071 11.1929 50 25 50Z" fill="#FF4500"/>
<path d="M41.675 25C41.68 25.3425 41.6375 25.6844 41.5475 26.015C41.4575 26.3456 41.3213 26.6625 41.1425 26.955C40.9644 27.2475 40.7456 27.5138 40.4931 27.7456C40.2406 27.9775 39.9569 28.1725 39.65 28.325C39.6569 28.4163 39.6625 28.5081 39.6656 28.6C39.6732 28.7833 39.6732 28.9667 39.6656 29.15C39.6625 29.2419 39.6569 29.3337 39.65 29.425C39.65 35.025 33.125 39.575 25.075 39.575C17.025 39.575 10.5 35.025 10.5 29.425C10.4931 29.3337 10.4875 29.2419 10.4844 29.15C10.4769 28.9667 10.4769 28.7833 10.4844 28.6C10.4875 28.5081 10.4931 28.4163 10.5 28.325C10.0192 28.104 9.59221 27.7812 9.2485 27.3789C8.90479 26.9766 8.6526 26.5044 8.50938 25.995C8.3664 25.4854 8.33594 24.9508 8.42012 24.4282C8.5043 23.9057 8.7011 23.4077 8.99688 22.9688C9.29241 22.5299 9.67987 22.1606 10.1324 21.8865C10.5849 21.6123 11.0917 21.4399 11.6175 21.3813C12.1434 21.3223 12.6758 21.3784 13.1779 21.5457C13.6799 21.713 14.1396 21.9874 14.525 22.35C15.2405 21.865 15.9902 21.4324 16.7681 21.0556C17.5463 20.6794 18.3506 20.3594 19.175 20.0994C19.9994 19.8394 20.8419 19.64 21.695 19.5019C22.5481 19.3637 23.4106 19.2881 24.275 19.275L26.125 10.6C26.1456 10.4994 26.1863 10.4044 26.2444 10.3194C26.3019 10.235 26.3763 10.1625 26.4619 10.1069C26.5481 10.0513 26.6444 10.0131 26.7456 9.99438C26.8463 9.97625 26.95 9.97812 27.05 10L33.175 11.225C33.7931 10.1631 35.0906 9.70813 36.2363 10.1506C37.3819 10.5931 38.0369 11.8025 37.7806 13.0037C37.525 14.205 36.4338 15.0425 35.2075 14.9794C33.9806 14.9162 32.9813 13.9712 32.85 12.75L27.5 11.625L25.875 19.425C26.7288 19.4431 27.5806 19.5231 28.4231 19.6637C30.1103 19.945 31.748 20.4683 33.2856 21.2175C34.0536 21.5912 34.7937 22.0199 35.5 22.5C36.0079 22.0124 36.6461 21.6822 37.3375 21.5494C38.0289 21.4161 38.7442 21.4857 39.3969 21.75C40.0497 22.0141 40.6121 22.4615 41.0163 23.0381C41.4206 23.6148 41.6494 24.2962 41.675 25ZM16.865 28.4569C16.9913 28.76 17.175 29.0356 17.4075 29.2675C17.6394 29.5 17.915 29.6838 18.2181 29.81C18.5215 29.9355 18.8467 30 19.175 30C20.1863 30 21.0975 29.3906 21.485 28.4569C21.8719 27.5225 21.6575 26.4475 20.9425 25.7325C20.2275 25.0175 19.1525 24.8031 18.2181 25.19C17.2844 25.5775 16.675 26.4888 16.675 27.5C16.675 27.8281 16.7394 28.1531 16.865 28.4569ZM31.1838 34.4581C31.3119 34.3331 31.385 34.1625 31.3875 33.9837C31.39 33.8044 31.3206 33.6319 31.1956 33.5037C31.0706 33.3756 30.9 33.3025 30.7213 33.3C30.5419 33.2975 30.3694 33.3669 30.225 33.475C29.8491 33.7446 29.451 33.9819 29.035 34.1844C28.619 34.3869 28.1866 34.554 27.7425 34.6838C27.2988 34.8131 26.8444 34.905 26.385 34.9581C25.925 35.0113 25.4619 35.025 25 35C24.5388 35.0206 24.0763 35.0019 23.6181 34.9444C23.1599 34.8874 22.7074 34.7913 22.2656 34.6569C21.8231 34.5231 21.3938 34.3519 20.9806 34.1456C20.5675 33.9394 20.1725 33.6981 19.8 33.425C19.6706 33.3187 19.5063 33.2644 19.3388 33.2725C19.1713 33.2806 19.0131 33.3512 18.8944 33.4694C18.7763 33.5881 18.7056 33.7463 18.6975 33.9137C18.6894 34.0812 18.7438 34.2456 18.85 34.375C19.2894 34.7062 19.7563 34.9988 20.2456 35.25C20.735 35.5012 21.2456 35.7094 21.7706 35.8731C22.2956 36.0369 22.8338 36.155 23.3794 36.2269C23.925 36.2981 24.4756 36.3225 25.025 36.3C25.5744 36.3225 26.125 36.2981 26.6706 36.2269C27.7635 36.0831 28.8235 35.7527 29.8044 35.25C30.2938 34.9988 30.7606 34.7062 31.2 34.375L31.1838 34.4581ZM30.725 30.2C31.0638 30.2038 31.4 30.1381 31.7131 30.0081C32.0263 29.8775 32.3094 29.685 32.5456 29.4419C32.7819 29.1987 32.9656 28.91 33.0869 28.5931C33.2082 28.2766 33.2637 27.9387 33.25 27.6C33.25 26.5888 32.6406 25.6775 31.7069 25.29C30.7725 24.9031 29.6975 25.1175 28.9825 25.8325C28.2675 26.5475 28.0531 27.6225 28.44 28.5569C28.8275 29.4906 29.7388 30.1 30.75 30.1L30.725 30.2Z" fill="white"/>
</g>
<defs>
<clipPath id="clip0_10_519">
<rect width="50" height="50" fill="white"/>
</clipPath>
</defs>
</svg>
