<svg width="50" height="50" viewBox="0 0 50 50" fill="none" xmlns="http://www.w3.org/2000/svg">
<g clip-path="url(#clip0_10_570)">
<path d="M25 50C38.8071 50 50 38.8071 50 25C50 11.1929 38.8071 0 25 0C11.1929 0 0 11.1929 0 25C0 38.8071 11.1929 50 25 50Z" fill="#4581FE"/>
<mask id="mask0_10_570" style="mask-type:alpha" maskUnits="userSpaceOnUse" x="0" y="0" width="50" height="50">
<path d="M25 50C38.8071 50 50 38.8071 50 25C50 11.1929 38.8071 0 25 0C11.1929 0 0 11.1929 0 25C0 38.8071 11.1929 50 25 50Z" fill="#D9D9D9"/>
</mask>
<g mask="url(#mask0_10_570)">
<g filter="url(#filter0_f_10_570)">
<path d="M34.9573 26.9494C35.8895 21.0471 36.535 7.51727 39.9364 5.24404C42.5384 5.13793 51.0223 6.7467 51.3346 6.73396C51.7249 6.71805 59.7855 12.6445 59.8334 13.8155C59.8716 14.7522 58.2452 25.9996 57.4272 31.5063L61.616 57.529L36.6929 50.3355C35.761 49.8522 27.4912 50.9454 29.5878 48.6705C32.2085 45.827 33.8537 33.9373 34.9573 26.9494Z" fill="#FF3AF3"/>
</g>
<g filter="url(#filter1_f_10_570)">
<path d="M34.9573 26.9494C35.8895 21.0471 36.535 7.51727 39.9364 5.24404C42.5384 5.13793 51.0223 6.7467 51.3346 6.73396C51.7249 6.71805 59.7855 12.6445 59.8334 13.8155C59.8716 14.7522 58.2452 25.9996 57.4272 31.5063L61.616 57.529L36.6929 50.3355C35.761 49.8522 27.4912 50.9454 29.5878 48.6705C32.2085 45.827 33.8537 33.9373 34.9573 26.9494Z" fill="#FF3AF3"/>
</g>
<g filter="url(#filter2_f_10_570)">
<path d="M19.1406 10.5469C20.0781 5.85934 29.5573 -4.42711 30.8594 -6.25002C28.3958 -7.13695 17.008 0.275307 13.672 15.6251C10.132 31.9131 5.59905 28.7761 2.73445 25.0001C-1.1718 20.1823 -7.34368 13.4376 -0.781179 25.0001C7.42194 39.4532 9.76564 34.375 12.5 33.9844C15.2344 33.5937 17.9688 16.4062 19.1406 10.5469Z" fill="#39FEC4"/>
</g>
<g filter="url(#filter3_f_10_570)">
<path d="M19.1406 10.5469C20.0781 5.85934 29.5573 -4.42711 30.8594 -6.25002C28.3958 -7.13695 17.008 0.275307 13.672 15.6251C10.132 31.9131 5.59905 28.7761 2.73445 25.0001C-1.1718 20.1823 -7.34368 13.4376 -0.781179 25.0001C7.42194 39.4532 9.76564 34.375 12.5 33.9844C15.2344 33.5937 17.9688 16.4062 19.1406 10.5469Z" fill="#39FEC4"/>
</g>
<g filter="url(#filter4_f_10_570)">
<path d="M8.59382 23.4374C16.1525 4.77721 20.334 -0.108493 24.6094 0.390518C19.1408 -0.781358 11.3281 8.98425 7.81249 15.6249C4.99999 20.9374 2.474 19.401 1.56256 17.9686C-0.781185 15.6249 -4.37493 12.6561 6.50883e-05 19.5311C4.37506 26.4061 7.55215 24.9999 8.59382 23.4374Z" fill="#FB44F4"/>
</g>
<g filter="url(#filter5_f_10_570)">
<path d="M8.59382 23.4374C16.1525 4.77721 20.334 -0.108493 24.6094 0.390518C19.1408 -0.781358 11.3281 8.98425 7.81249 15.6249C4.99999 20.9374 2.474 19.401 1.56256 17.9686C-0.781185 15.6249 -4.37493 12.6561 6.50883e-05 19.5311C4.37506 26.4061 7.55215 24.9999 8.59382 23.4374Z" fill="#FB44F4"/>
</g>
<g filter="url(#filter6_f_10_570)">
<path d="M8.59382 23.4374C16.1525 4.77721 20.334 -0.108493 24.6094 0.390518C19.1408 -0.781358 11.3281 8.98425 7.81249 15.6249C4.99999 20.9374 2.474 19.401 1.56256 17.9686C-0.781185 15.6249 -4.37493 12.6561 6.50883e-05 19.5311C4.37506 26.4061 7.55215 24.9999 8.59382 23.4374Z" fill="#FB44F4"/>
</g>
<g filter="url(#filter7_f_10_570)">
<path d="M8.59382 23.4374C16.1525 4.77721 20.334 -0.108493 24.6094 0.390518C19.1408 -0.781358 11.3281 8.98425 7.81249 15.6249C4.99999 20.9374 2.474 19.401 1.56256 17.9686C-0.781185 15.6249 -4.37493 12.6561 6.50883e-05 19.5311C4.37506 26.4061 7.55215 24.9999 8.59382 23.4374Z" fill="#FB44F4"/>
</g>
<g filter="url(#filter8_f_10_570)">
<path d="M4.89281 18.383C7.97282 12.365 14.4038 3.12891 17.2343 -0.736898C17.6073 -0.911053 17.9566 -1.29216 16.3686 -1.42338C14.3835 -1.5874 -5.22682 12.4735 -0.808683 16.682C2.72583 20.0488 4.46503 19.2189 4.89281 18.383Z" fill="#FFC21E"/>
</g>
<g filter="url(#filter9_f_10_570)">
<path d="M4.89281 18.383C7.97282 12.365 14.4038 3.12891 17.2343 -0.736898C17.6073 -0.911053 17.9566 -1.29216 16.3686 -1.42338C14.3835 -1.5874 -5.22682 12.4735 -0.808683 16.682C2.72583 20.0488 4.46503 19.2189 4.89281 18.383Z" fill="#FFC21E"/>
</g>
<g filter="url(#filter10_f_10_570)">
<path d="M4.89281 18.383C7.97282 12.365 14.4038 3.12891 17.2343 -0.736898C17.6073 -0.911053 17.9566 -1.29216 16.3686 -1.42338C14.3835 -1.5874 -5.22682 12.4735 -0.808683 16.682C2.72583 20.0488 4.46503 19.2189 4.89281 18.383Z" fill="#FFC21E"/>
</g>
<g filter="url(#filter11_f_10_570)">
<path d="M4.89281 18.383C7.97282 12.365 14.4038 3.12891 17.2343 -0.736898C17.6073 -0.911053 17.9566 -1.29216 16.3686 -1.42338C14.3835 -1.5874 -5.22682 12.4735 -0.808683 16.682C2.72583 20.0488 4.46503 19.2189 4.89281 18.383Z" fill="#FFC21E"/>
</g>
<g filter="url(#filter12_f_10_570)">
<path d="M4.89281 18.383C7.97282 12.365 14.4038 3.12891 17.2343 -0.736898C17.6073 -0.911053 17.9566 -1.29216 16.3686 -1.42338C14.3835 -1.5874 -5.22682 12.4735 -0.808683 16.682C2.72583 20.0488 4.46503 19.2189 4.89281 18.383Z" fill="#FFC21E"/>
</g>
<g filter="url(#filter13_f_10_570)">
<path d="M4.89281 18.383C7.97282 12.365 14.4038 3.12891 17.2343 -0.736898C17.6073 -0.911053 17.9566 -1.29216 16.3686 -1.42338C14.3835 -1.5874 -5.22682 12.4735 -0.808683 16.682C2.72583 20.0488 4.46503 19.2189 4.89281 18.383Z" fill="#FFC21E"/>
</g>
<g filter="url(#filter14_f_10_570)">
<path d="M4.89281 18.383C7.97282 12.365 14.4038 3.12891 17.2343 -0.736898C17.6073 -0.911053 17.9566 -1.29216 16.3686 -1.42338C14.3835 -1.5874 -5.22682 12.4735 -0.808683 16.682C2.72583 20.0488 4.46503 19.2189 4.89281 18.383Z" fill="#FFC21E"/>
</g>
<g filter="url(#filter15_f_10_570)">
<path d="M4.89281 18.383C7.97282 12.365 14.4038 3.12891 17.2343 -0.736898C17.6073 -0.911053 17.9566 -1.29216 16.3686 -1.42338C14.3835 -1.5874 -5.22682 12.4735 -0.808683 16.682C2.72583 20.0488 4.46503 19.2189 4.89281 18.383Z" fill="#FFC21E"/>
</g>
</g>
</g>
<defs>
<filter id="filter0_f_10_570" x="17.2486" y="-6.76099" width="56.3674" height="76.29" filterUnits="userSpaceOnUse" color-interpolation-filters="sRGB">
<feFlood flood-opacity="0" result="BackgroundImageFix"/>
<feBlend mode="normal" in="SourceGraphic" in2="BackgroundImageFix" result="shape"/>
<feGaussianBlur stdDeviation="6" result="effect1_foregroundBlur_10_570"/>
</filter>
<filter id="filter1_f_10_570" x="17.2486" y="-6.76099" width="56.3674" height="76.29" filterUnits="userSpaceOnUse" color-interpolation-filters="sRGB">
<feFlood flood-opacity="0" result="BackgroundImageFix"/>
<feBlend mode="normal" in="SourceGraphic" in2="BackgroundImageFix" result="shape"/>
<feGaussianBlur stdDeviation="6" result="effect1_foregroundBlur_10_570"/>
</filter>
<filter id="filter2_f_10_570" x="-10.6609" y="-13.3212" width="48.5203" height="55.4845" filterUnits="userSpaceOnUse" color-interpolation-filters="sRGB">
<feFlood flood-opacity="0" result="BackgroundImageFix"/>
<feBlend mode="normal" in="SourceGraphic" in2="BackgroundImageFix" result="shape"/>
<feGaussianBlur stdDeviation="3.5" result="effect1_foregroundBlur_10_570"/>
</filter>
<filter id="filter3_f_10_570" x="-10.6609" y="-13.3212" width="48.5203" height="55.4845" filterUnits="userSpaceOnUse" color-interpolation-filters="sRGB">
<feFlood flood-opacity="0" result="BackgroundImageFix"/>
<feBlend mode="normal" in="SourceGraphic" in2="BackgroundImageFix" result="shape"/>
<feGaussianBlur stdDeviation="3.5" result="effect1_foregroundBlur_10_570"/>
</filter>
<filter id="filter4_f_10_570" x="-7.06128" y="-4.70593" width="36.6707" height="34.4274" filterUnits="userSpaceOnUse" color-interpolation-filters="sRGB">
<feFlood flood-opacity="0" result="BackgroundImageFix"/>
<feBlend mode="normal" in="SourceGraphic" in2="BackgroundImageFix" result="shape"/>
<feGaussianBlur stdDeviation="2.5" result="effect1_foregroundBlur_10_570"/>
</filter>
<filter id="filter5_f_10_570" x="-7.06128" y="-4.70593" width="36.6707" height="34.4274" filterUnits="userSpaceOnUse" color-interpolation-filters="sRGB">
<feFlood flood-opacity="0" result="BackgroundImageFix"/>
<feBlend mode="normal" in="SourceGraphic" in2="BackgroundImageFix" result="shape"/>
<feGaussianBlur stdDeviation="2.5" result="effect1_foregroundBlur_10_570"/>
</filter>
<filter id="filter6_f_10_570" x="-7.06128" y="-4.70593" width="36.6707" height="34.4274" filterUnits="userSpaceOnUse" color-interpolation-filters="sRGB">
<feFlood flood-opacity="0" result="BackgroundImageFix"/>
<feBlend mode="normal" in="SourceGraphic" in2="BackgroundImageFix" result="shape"/>
<feGaussianBlur stdDeviation="2.5" result="effect1_foregroundBlur_10_570"/>
</filter>
<filter id="filter7_f_10_570" x="-7.06128" y="-4.70593" width="36.6707" height="34.4274" filterUnits="userSpaceOnUse" color-interpolation-filters="sRGB">
<feFlood flood-opacity="0" result="BackgroundImageFix"/>
<feBlend mode="normal" in="SourceGraphic" in2="BackgroundImageFix" result="shape"/>
<feGaussianBlur stdDeviation="2.5" result="effect1_foregroundBlur_10_570"/>
</filter>
<filter id="filter8_f_10_570" x="-6.45496" y="-6.4248" width="29.0051" height="30.5509" filterUnits="userSpaceOnUse" color-interpolation-filters="sRGB">
<feFlood flood-opacity="0" result="BackgroundImageFix"/>
<feBlend mode="normal" in="SourceGraphic" in2="BackgroundImageFix" result="shape"/>
<feGaussianBlur stdDeviation="2.5" result="effect1_foregroundBlur_10_570"/>
</filter>
<filter id="filter9_f_10_570" x="-6.45496" y="-6.4248" width="29.0051" height="30.5509" filterUnits="userSpaceOnUse" color-interpolation-filters="sRGB">
<feFlood flood-opacity="0" result="BackgroundImageFix"/>
<feBlend mode="normal" in="SourceGraphic" in2="BackgroundImageFix" result="shape"/>
<feGaussianBlur stdDeviation="2.5" result="effect1_foregroundBlur_10_570"/>
</filter>
<filter id="filter10_f_10_570" x="-6.45496" y="-6.4248" width="29.0051" height="30.5509" filterUnits="userSpaceOnUse" color-interpolation-filters="sRGB">
<feFlood flood-opacity="0" result="BackgroundImageFix"/>
<feBlend mode="normal" in="SourceGraphic" in2="BackgroundImageFix" result="shape"/>
<feGaussianBlur stdDeviation="2.5" result="effect1_foregroundBlur_10_570"/>
</filter>
<filter id="filter11_f_10_570" x="-6.45496" y="-6.4248" width="29.0051" height="30.5509" filterUnits="userSpaceOnUse" color-interpolation-filters="sRGB">
<feFlood flood-opacity="0" result="BackgroundImageFix"/>
<feBlend mode="normal" in="SourceGraphic" in2="BackgroundImageFix" result="shape"/>
<feGaussianBlur stdDeviation="2.5" result="effect1_foregroundBlur_10_570"/>
</filter>
<filter id="filter12_f_10_570" x="-6.45496" y="-6.4248" width="29.0051" height="30.5509" filterUnits="userSpaceOnUse" color-interpolation-filters="sRGB">
<feFlood flood-opacity="0" result="BackgroundImageFix"/>
<feBlend mode="normal" in="SourceGraphic" in2="BackgroundImageFix" result="shape"/>
<feGaussianBlur stdDeviation="2.5" result="effect1_foregroundBlur_10_570"/>
</filter>
<filter id="filter13_f_10_570" x="-6.45496" y="-6.4248" width="29.0051" height="30.5509" filterUnits="userSpaceOnUse" color-interpolation-filters="sRGB">
<feFlood flood-opacity="0" result="BackgroundImageFix"/>
<feBlend mode="normal" in="SourceGraphic" in2="BackgroundImageFix" result="shape"/>
<feGaussianBlur stdDeviation="2.5" result="effect1_foregroundBlur_10_570"/>
</filter>
<filter id="filter14_f_10_570" x="-6.45496" y="-6.4248" width="29.0051" height="30.5509" filterUnits="userSpaceOnUse" color-interpolation-filters="sRGB">
<feFlood flood-opacity="0" result="BackgroundImageFix"/>
<feBlend mode="normal" in="SourceGraphic" in2="BackgroundImageFix" result="shape"/>
<feGaussianBlur stdDeviation="2.5" result="effect1_foregroundBlur_10_570"/>
</filter>
<filter id="filter15_f_10_570" x="-6.45496" y="-6.4248" width="29.0051" height="30.5509" filterUnits="userSpaceOnUse" color-interpolation-filters="sRGB">
<feFlood flood-opacity="0" result="BackgroundImageFix"/>
<feBlend mode="normal" in="SourceGraphic" in2="BackgroundImageFix" result="shape"/>
<feGaussianBlur stdDeviation="2.5" result="effect1_foregroundBlur_10_570"/>
</filter>
<clipPath id="clip0_10_570">
<rect width="50" height="50" fill="white"/>
</clipPath>
</defs>
</svg>
