<svg width="50" height="50" viewBox="0 0 50 50" fill="none" xmlns="http://www.w3.org/2000/svg">
<g clip-path="url(#clip0_10_709)">
<path d="M42.8571 0H7.14286C3.19797 0 0 3.19797 0 7.14286V42.8571C0 46.802 3.19797 50 7.14286 50H42.8571C46.802 50 50 46.802 50 42.8571V7.14286C50 3.19797 46.802 0 42.8571 0Z" fill="#3A48FF"/>
<path d="M32.2322 20.6785C32.2322 20.6785 29.8214 28.25 29.625 28.875C29.5536 28.2321 27.7857 14.6428 27.7857 14.6428C23.6786 14.6428 21.4822 17.5714 20.3214 20.6607C20.3214 20.6607 17.3929 28.25 17.1429 28.8928C17.125 28.3035 16.6964 20.75 16.6964 20.75C16.4464 16.9643 12.9822 14.6607 10.1786 14.6607L13.5714 35.25C17.875 35.2321 20.1964 32.3214 21.4107 29.2321C21.4107 29.2321 24 22.5357 24.1072 22.2321C24.125 22.5178 25.9643 35.25 25.9643 35.25C30.2857 35.25 32.6072 32.5178 33.8572 29.5357L39.9107 14.6607C35.6429 14.6607 33.3929 17.5714 32.2322 20.6785Z" fill="white"/>
</g>
<defs>
<clipPath id="clip0_10_709">
<rect width="50" height="50" fill="white"/>
</clipPath>
</defs>
</svg>
