<svg width="48" height="46" viewBox="0 0 48 46" fill="none" xmlns="http://www.w3.org/2000/svg">
<path d="M38.8215 0.370839L38.7913 0.737265L38.8215 0.739721L38.8515 0.737265L38.8215 0.370839ZM23.7874 8.8555L23.6035 9.1739L23.7874 9.28003L23.9712 9.1739L23.7874 8.8555ZM8.80384 0.368045L8.79324 0.735545L8.80384 0.735839L8.81443 0.735545L8.80384 0.368045ZM0.383897 5.56938L0.745294 5.63685L0.749779 5.6128L0.751044 5.58837L0.383897 5.56938ZM0.378618 39.7771L0.745544 39.8003L0.748044 39.7607L0.742059 39.7216L0.378618 39.7771ZM8.87263 45.0826L8.91194 44.7172L8.87263 44.7129L8.83332 44.7172L8.87263 45.0826ZM17.2512 40.2966L16.9434 40.0954L16.9354 40.1076L16.9285 40.1203L17.2512 40.2966ZM17.4062 23.4651L17.59 23.1468L17.0385 22.8282V23.4651H17.4062ZM24.0262 27.0919L24.0562 26.7254L24.026 26.7231L23.996 26.7254L24.0262 27.0919ZM30.4354 23.5866H30.8031V22.9499L30.2516 23.2682L30.4354 23.5866ZM30.4721 40.0378L30.8316 39.9607L30.829 39.9487L30.8256 39.9368L30.4721 40.0378ZM38.9353 45.0838L38.9701 44.7179L38.9353 44.7146L38.9003 44.7179L38.9353 45.0838ZM47.4171 39.7663L47.0531 39.715L47.0475 39.7543L47.0504 39.7937L47.4171 39.7663ZM47.0635 4.99652L46.7844 5.23574L46.8075 5.2628L46.8354 5.2849L47.0635 4.99652ZM45.5174 39.2829L45.7012 39.6013L45.885 39.4952V39.2829H45.5174ZM45.5174 6.7285H45.885V6.09172L45.3335 6.41012L45.5174 6.7285ZM23.6018 19.2199L23.6113 18.8518L23.5922 18.8522L23.6018 19.2199ZM2.27672 7.06949L2.46054 6.75109L1.90907 6.43271V7.06949H2.27672ZM2.27672 39.2816H1.90907V39.4938L2.0929 39.6L2.27672 39.2816ZM8.0039 42.5882L7.82007 42.9066L8.37154 43.225V42.5882H8.0039ZM8.29485 16.9913L8.55047 17.2554L8.57412 17.2326L8.59332 17.2059L8.29485 16.9913ZM24.026 25.0826L23.8422 25.401L24.026 25.5072L24.2099 25.401L24.026 25.0826ZM39.9062 17.3059L39.5507 17.4L39.5574 17.4251L39.5675 17.4491L39.9062 17.3059ZM39.9812 42.4793H39.6135V43.116L40.165 42.7976L39.9812 42.4793ZM32.3446 39.2779H31.9769V39.4903L32.1607 39.5963L32.3446 39.2779ZM38.0721 42.5849L37.8882 42.9032L38.4397 43.2216V42.5849H38.0721ZM32.3388 22.4878L32.155 22.1694L31.9471 22.2894L31.9734 22.5279L32.3388 22.4878ZM38.0721 19.1776H38.4397V18.5409L37.8882 18.8593L38.0721 19.1776ZM15.4971 39.2651L15.6809 39.5835L15.8647 39.4774V39.2651H15.4971ZM15.5216 22.3771L15.8799 22.46L15.9412 22.1949L15.7054 22.0587L15.5216 22.3771ZM9.91298 19.139L10.0968 18.8206L9.54534 18.5022V19.139H9.91298ZM9.91298 42.4891H9.54534V43.1259L10.0968 42.8075L9.91298 42.4891ZM23.6018 17.1771L23.4179 17.4954L23.6018 17.6016L23.7856 17.4954L23.6018 17.1771ZM44.0263 5.385L44.2101 5.7034L44.7616 5.385L44.2101 5.06662L44.0263 5.385ZM3.41343 5.52134L3.2296 5.20296L2.67813 5.52134L3.2296 5.83974L3.41343 5.52134ZM8.80384 2.40919L8.98766 2.09079L8.80384 1.98466L8.62001 2.09079L8.80384 2.40919ZM23.7874 10.8647L23.8174 10.4983L23.7874 10.4958L23.7574 10.4983L23.7874 10.8647ZM38.8215 2.38L39.0053 2.0616L38.8215 1.95547L38.6376 2.0616L38.8215 2.38ZM38.4507 0.814089C38.5585 0.751868 38.6768 0.727868 38.7913 0.737265L38.8515 0.00442994C38.5926 -0.0168054 38.3246 0.0379594 38.0831 0.177298L38.4507 0.814089ZM23.9712 9.1739L38.4507 0.814089L38.0831 0.177298L23.6035 8.53712L23.9712 9.1739ZM9.1239 0.814089L23.6035 9.1739L23.9712 8.53712L9.49154 0.177298L9.1239 0.814089ZM8.81443 0.735545C8.91909 0.732515 9.02573 0.757412 9.1239 0.814089L9.49154 0.177298C9.27201 0.0505623 9.03018 -0.00627596 8.79324 0.000547574L8.81443 0.735545ZM8.48378 0.814089C8.58194 0.757412 8.68859 0.732515 8.79324 0.735545L8.81443 0.000547574C8.57749 -0.00627596 8.33565 0.0505623 8.11613 0.177298L8.48378 0.814089ZM1.04387 5.10952L8.48378 0.814089L8.11613 0.177298L0.676221 4.47274L1.04387 5.10952ZM0.751044 5.58837C0.761029 5.39525 0.865309 5.2126 1.04387 5.10952L0.676221 4.47274C0.272887 4.7056 0.0390412 5.11899 0.0167353 5.5504L0.751044 5.58837ZM0.735294 5.74566C0.735294 5.70818 0.738765 5.67184 0.745294 5.63685L0.0224897 5.5019C0.00768824 5.58118 0 5.66269 0 5.74566H0.735294ZM0.735294 39.6319V5.74566H0V39.6319H0.735294ZM0.742059 39.7216C0.737632 39.6925 0.735294 39.6626 0.735294 39.6319H0C0 39.6999 0.00516615 39.7669 0.0151867 39.8325L0.742059 39.7216ZM1.03799 40.3463C0.83875 40.2313 0.731853 40.0168 0.745544 39.8003L0.0117103 39.7538C-0.0189323 40.2384 0.219969 40.7231 0.670338 40.9831L1.03799 40.3463ZM8.47788 44.6418L1.03799 40.3463L0.670338 40.9831L8.11024 45.2785L8.47788 44.6418ZM8.83332 44.7172C8.71403 44.73 8.59022 44.7066 8.47788 44.6418L8.11024 45.2785C8.36206 45.424 8.64288 45.4772 8.91194 45.4482L8.83332 44.7172ZM9.26735 44.6418C9.15501 44.7066 9.03122 44.73 8.91194 44.7172L8.83332 45.4482C9.10237 45.4772 9.38318 45.424 9.635 45.2785L9.26735 44.6418ZM16.7072 40.3463L9.26735 44.6418L9.635 45.2785L17.0749 40.9831L16.7072 40.3463ZM16.9285 40.1203C16.8788 40.2113 16.8044 40.2901 16.7072 40.3463L17.0749 40.9831C17.2922 40.8577 17.4612 40.6788 17.5738 40.4728L16.9285 40.1203ZM17.0385 39.775C17.0385 39.894 17.0035 40.0035 16.9434 40.0954L17.559 40.4977C17.6949 40.2899 17.7738 40.041 17.7738 39.775H17.0385ZM17.0385 23.4651V39.775H17.7738V23.4651H17.0385ZM23.6556 26.6487L17.59 23.1468L17.2224 23.7835L23.2879 27.2854L23.6556 26.6487ZM23.996 26.7254C23.8815 26.7349 23.7632 26.7109 23.6556 26.6487L23.2879 27.2854C23.5293 27.4249 23.7974 27.4796 24.0562 27.4584L23.996 26.7254ZM24.3966 26.6487C24.2888 26.7109 24.1707 26.7349 24.0562 26.7254L23.9962 27.4584C24.2549 27.4796 24.5229 27.4247 24.7643 27.2854L24.3966 26.6487ZM30.2516 23.2682L24.3966 26.6487L24.7643 27.2854L30.6193 23.905L30.2516 23.2682ZM30.8031 39.775V23.5866H30.0678V39.775H30.8031ZM30.8256 39.9368C30.811 39.8859 30.8031 39.8316 30.8031 39.775H30.0678C30.0678 39.9006 30.0854 40.0228 30.1185 40.1388L30.8256 39.9368ZM31.1121 40.3463C30.9624 40.2599 30.8653 40.1181 30.8316 39.9607L30.1126 40.1149C30.1881 40.4671 30.4072 40.7884 30.7444 40.9831L31.1121 40.3463ZM38.5519 44.6418L31.1121 40.3463L30.7444 40.9831L38.1843 45.2785L38.5519 44.6418ZM38.9003 44.7179C38.7832 44.7291 38.6621 44.7053 38.5519 44.6418L38.1843 45.2785C38.4312 45.421 38.7059 45.475 38.9701 45.4499L38.9003 44.7179ZM39.3185 44.6418C39.2084 44.7053 39.0872 44.7291 38.9701 44.7179L38.9003 45.4499C39.1646 45.475 39.4394 45.421 39.6862 45.2785L39.3185 44.6418ZM46.7585 40.3463L39.3185 44.6418L39.6862 45.2785L47.1262 40.9831L46.7585 40.3463ZM47.0504 39.7937C47.0668 40.0124 46.9597 40.2301 46.7585 40.3463L47.1262 40.9831C47.581 40.7204 47.8203 40.2285 47.7837 39.739L47.0504 39.7937ZM47.0588 39.6318C47.0588 39.6603 47.0569 39.6881 47.0531 39.715L47.7812 39.8176C47.7897 39.7568 47.7941 39.6947 47.7941 39.6318H47.0588ZM47.0588 5.74566V39.6318H47.7941V5.74566H47.0588ZM46.8354 5.2849C46.9722 5.39299 47.0588 5.5591 47.0588 5.74566H47.7941C47.7941 5.32478 47.5971 4.94969 47.2916 4.70815L46.8354 5.2849ZM46.6319 5.10952C46.6918 5.14405 46.7426 5.18699 46.7844 5.23574L47.3428 4.75731C47.2475 4.64622 47.1325 4.54944 46.9996 4.47274L46.6319 5.10952ZM39.1921 0.814089L46.6319 5.10952L46.9996 4.47274L39.5597 0.177298L39.1921 0.814089ZM38.8515 0.737265C38.966 0.727868 39.0843 0.751868 39.1921 0.814089L39.5597 0.177298C39.3184 0.0379594 39.0503 -0.0167906 38.7913 0.00442994L38.8515 0.737265ZM45.885 39.2829V6.7285H45.1497V39.2829H45.885ZM45.3335 6.41012L23.9193 18.7737L24.2869 19.4104L45.7012 7.0469L45.3335 6.41012ZM23.9193 18.7737C23.8216 18.83 23.7154 18.8546 23.6113 18.8518L23.5922 19.5874C23.8279 19.5935 24.0685 19.5366 24.2869 19.4104L23.9193 18.7737ZM23.5922 18.8522C23.4881 18.855 23.3819 18.83 23.2843 18.7737L22.9166 19.4104C23.135 19.5366 23.3756 19.5935 23.6113 19.5874L23.5922 18.8522ZM23.2843 18.7737L2.46054 6.75109L2.0929 7.38788L22.9166 19.4104L23.2843 18.7737ZM1.90907 7.06949V39.2816H2.64437V7.06949H1.90907ZM2.0929 39.6L7.82007 42.9066L8.18772 42.2699L2.46054 38.9632L2.0929 39.6ZM8.37154 42.5882V17.6774H7.63625V42.5882H8.37154ZM8.37154 17.6774C8.37154 17.5118 8.43969 17.3626 8.55047 17.2554L8.03924 16.7271C7.79119 16.9669 7.63625 17.3044 7.63625 17.6774H8.37154ZM8.59332 17.2059C8.76697 16.9644 9.09943 16.8893 9.36263 17.0413L9.73028 16.4046C9.13669 16.0618 8.38832 16.2316 7.99637 16.7766L8.59332 17.2059ZM9.36263 17.0413L23.8422 25.401L24.2099 24.7643L9.73028 16.4046L9.36263 17.0413ZM24.2099 25.401L38.6896 17.0413L38.3219 16.4046L23.8422 24.7643L24.2099 25.401ZM38.6896 17.0413C38.9703 16.8793 39.3291 16.9754 39.4912 17.2562L40.1281 16.8885C39.7629 16.256 38.9543 16.0394 38.3219 16.4046L38.6896 17.0413ZM39.4912 17.2562C39.5182 17.3028 39.5378 17.351 39.5507 17.4L40.2616 17.2119C40.2322 17.1007 40.1878 16.9921 40.1281 16.8885L39.4912 17.2562ZM39.5675 17.4491C39.5971 17.5188 39.6135 17.5957 39.6135 17.6774H40.3488C40.3488 17.4956 40.3119 17.3213 40.2447 17.1626L39.5675 17.4491ZM39.6135 17.6774V42.4793H40.3488V17.6774H39.6135ZM40.165 42.7976L45.7012 39.6013L45.3335 38.9646L39.7974 42.1609L40.165 42.7976ZM32.1607 39.5963L37.8882 42.9032L38.2559 42.2663L32.5284 38.9596L32.1607 39.5963ZM31.9769 22.5932V39.2779H32.7122V22.5932H31.9769ZM31.9734 22.5279C31.9757 22.5493 31.9769 22.5712 31.9769 22.5932H32.7122C32.7122 22.5441 32.7096 22.4956 32.7043 22.4476L31.9734 22.5279ZM37.8882 18.8593L32.155 22.1694L32.5226 22.8062L38.2559 19.496L37.8882 18.8593ZM38.4397 42.5849V19.1776H37.7044V42.5849H38.4397ZM15.1294 22.5932V39.2651H15.8647V22.5932H15.1294ZM15.1635 22.2941C15.1412 22.3906 15.1294 22.4909 15.1294 22.5932H15.8647C15.8647 22.5471 15.87 22.5025 15.8799 22.46L15.1635 22.2941ZM9.72916 19.4574L15.3378 22.6954L15.7054 22.0587L10.0968 18.8206L9.72916 19.4574ZM10.2806 42.4891V19.139H9.54534V42.4891H10.2806ZM15.3132 38.9468L9.72916 42.1707L10.0968 42.8075L15.6809 39.5835L15.3132 38.9468ZM23.7856 17.4954L44.2101 5.7034L43.8425 5.06662L23.4179 16.8587L23.7856 17.4954ZM3.2296 5.83974L23.4179 17.4954L23.7856 16.8587L3.59725 5.20296L3.2296 5.83974ZM8.62001 2.09079L3.2296 5.20296L3.59725 5.83974L8.98766 2.72759L8.62001 2.09079ZM23.4168 10.4215L8.98766 2.09079L8.62001 2.72759L23.0491 11.0582L23.4168 10.4215ZM23.7574 10.4983C23.6428 10.5077 23.5246 10.4837 23.4168 10.4215L23.0491 11.0582C23.2904 11.1976 23.5585 11.2524 23.8174 11.2312L23.7574 10.4983ZM24.1578 10.4215C24.0501 10.4837 23.9319 10.5077 23.8174 10.4983L23.7574 11.2312C24.0162 11.2524 24.2843 11.1976 24.5254 11.0582L24.1578 10.4215ZM38.6376 2.0616L24.1578 10.4215L24.5254 11.0582L39.0053 2.69838L38.6376 2.0616ZM44.2101 5.06662L39.0053 2.0616L38.6376 2.69838L43.8425 5.7034L44.2101 5.06662Z" fill="black"/>
</svg>
