<svg width="50" height="35" viewBox="0 0 50 35" fill="none" xmlns="http://www.w3.org/2000/svg">
<mask id="mask0_5_2017" style="mask-type:alpha" maskUnits="userSpaceOnUse" x="0" y="0" width="50" height="35">
<path d="M0 0H49.8168V34.7985H0V0Z" fill="white"/>
</mask>
<g mask="url(#mask0_5_2017)">
<path fill-rule="evenodd" clip-rule="evenodd" d="M20.685 3.80952C22.293 2.13553 24.5311 1.0989 27.0037 1.0989C30.3004 1.0989 33.1575 2.9304 34.696 5.65934C36.0616 5.04885 37.5408 4.73367 39.0366 4.73443C44.9707 4.73443 49.7875 9.58791 49.7875 15.5769C49.7875 21.5659 44.9707 26.4194 39.0366 26.4194C38.3114 26.4194 37.6044 26.3465 36.9121 26.2088C35.5659 28.6081 32.9927 30.2381 30.0623 30.2381C28.8692 30.2405 27.6914 29.9698 26.619 29.4469C25.2546 32.652 22.0769 34.9048 18.3773 34.9048C14.5128 34.9048 11.2344 32.4689 9.9707 29.044C9.40824 29.1627 8.83492 29.2223 8.26007 29.222C3.663 29.222 -0.054945 25.4491 -0.054945 20.8154C-0.054945 17.7018 1.61905 14.9912 4.10256 13.526C3.57569 12.3123 3.30448 11.003 3.30586 9.67985C3.30586 4.33187 7.64652 0.00952148 12.9945 0.00952148C16.1264 0.00952148 18.9286 1.5022 20.6868 3.81904" fill="#00A1E0"/>
<path fill-rule="evenodd" clip-rule="evenodd" d="M7.20513 18.0952C7.17381 18.1769 7.2163 18.194 7.22637 18.2084C7.31996 18.2762 7.41502 18.3253 7.51026 18.3804C8.01941 18.6496 8.49927 18.7284 9.0011 18.7284C10.0231 18.7284 10.6586 18.1844 10.6586 17.309V17.2918C10.6586 16.4822 9.94066 16.1874 9.27033 15.9767L9.1826 15.9483C8.67527 15.7839 8.23755 15.6407 8.23755 15.3073V15.2903C8.23755 15.0046 8.49396 14.794 8.88956 14.794C9.32912 14.794 9.85293 14.9403 10.1881 15.1255C10.1881 15.1255 10.2874 15.1896 10.3234 15.0938C10.343 15.0419 10.5139 14.5846 10.5322 14.5333C10.5516 14.4797 10.5176 14.4392 10.4826 14.4183C10.098 14.1839 9.56685 14.0245 9.0174 14.0245L8.91538 14.0249C7.97949 14.0249 7.32564 14.5908 7.32564 15.4004V15.4178C7.32564 16.2712 8.04725 16.5496 8.72125 16.7419L8.82967 16.7756C9.32051 16.9266 9.74542 17.0577 9.74542 17.402V17.4192C9.74542 17.7361 9.46886 17.9723 9.02564 17.9723C8.8533 17.9723 8.30403 17.9694 7.70879 17.5932C7.63681 17.5513 7.59579 17.5211 7.54029 17.4872C7.51099 17.4694 7.43773 17.4374 7.40586 17.5333L7.2044 18.0938L7.20513 18.0952ZM22.1678 18.0938C22.1364 18.1755 22.1789 18.1925 22.1894 18.207C22.2826 18.2747 22.378 18.3238 22.4733 18.3789C22.9824 18.6482 23.4623 18.7269 23.9641 18.7269C24.9861 18.7269 25.6216 18.183 25.6216 17.3075V17.2903C25.6216 16.4808 24.9055 16.1859 24.2333 15.9753L24.1456 15.9469C23.6383 15.7824 23.2005 15.6392 23.2005 15.3059V15.2888C23.2005 15.0031 23.457 14.7925 23.8526 14.7925C24.2921 14.7925 24.8141 14.9388 25.1511 15.124C25.1511 15.124 25.2504 15.1881 25.2866 15.0923C25.306 15.0405 25.4771 14.5831 25.4936 14.5319C25.5132 14.4782 25.4789 14.4377 25.4441 14.4168C25.0595 14.1824 24.5284 14.0231 23.9789 14.0231L23.8767 14.0234C22.9408 14.0234 22.287 14.5894 22.287 15.3989V15.4163C22.287 16.2698 23.0086 16.5482 23.6826 16.7405L23.7908 16.7742C24.2835 16.9251 24.7066 17.0562 24.7066 17.4005V17.4178C24.7066 17.7346 24.43 17.9709 23.9868 17.9709C23.8141 17.9709 23.2634 17.9679 22.67 17.5918C22.598 17.5498 22.5559 17.5209 22.5013 17.4857C22.4828 17.474 22.3965 17.4403 22.367 17.5319L22.1656 18.0923L22.1678 18.0938ZM32.3854 16.378C32.3854 16.8725 32.293 17.2626 32.1125 17.5392C31.9322 17.8121 31.6601 17.9458 31.281 17.9458C30.9018 17.9458 30.6308 17.8132 30.4531 17.541C30.2742 17.2663 30.1839 16.8744 30.1839 16.3798C30.1839 15.8853 30.2747 15.4971 30.4531 15.2242C30.6304 14.9531 30.9 14.8231 31.281 14.8231C31.6619 14.8231 31.933 14.9544 32.1125 15.2242C32.2941 15.4971 32.3854 15.8853 32.3854 16.3798V16.378ZM33.2388 15.4623C33.1548 15.1784 33.0245 14.9293 32.8506 14.7205C32.6764 14.5117 32.4568 14.3432 32.1949 14.2223C31.9348 14.1005 31.6271 14.0392 31.2791 14.0392C30.9311 14.0392 30.6253 14.1009 30.3634 14.2223C30.1033 14.3439 29.8817 14.5117 29.7077 14.7205C29.5341 14.9293 29.4037 15.1784 29.3194 15.4623C29.2361 15.7443 29.1938 16.052 29.1938 16.3798C29.1938 16.7077 29.2361 17.0154 29.3194 17.2974C29.4031 17.5813 29.5337 17.8304 29.7077 18.0392C29.8819 18.248 30.1033 18.4146 30.3634 18.5337C30.6253 18.6524 30.933 18.7128 31.2791 18.7128C31.6253 18.7128 31.933 18.6524 32.193 18.5337C32.4531 18.415 32.6747 18.248 32.8487 18.0392C33.0225 17.8304 33.1527 17.5813 33.237 17.2974C33.3201 17.0154 33.3625 16.7077 33.3625 16.3798C33.3625 16.0538 33.3201 15.7443 33.237 15.4623H33.2388ZM40.2517 17.8066C40.2236 17.7236 40.1427 17.7549 40.1427 17.7549C40.0187 17.8024 39.8863 17.8463 39.7452 17.8683C39.6031 17.8907 39.4449 17.9018 39.2782 17.9018C38.8661 17.9018 38.5364 17.7789 38.302 17.5355C38.0658 17.2919 37.9339 16.9 37.9357 16.3689C37.937 15.8853 38.0538 15.5227 38.2636 15.2443C38.4705 14.9696 38.7892 14.8267 39.2104 14.8267C39.5621 14.8267 39.8313 14.8676 40.1134 14.9559C40.1134 14.9559 40.1802 14.985 40.2123 14.8969C40.2872 14.6899 40.3425 14.5416 40.4229 14.3145C40.4456 14.2494 40.3899 14.222 40.3696 14.2141C40.259 14.1709 39.9978 14.1 39.8 14.0701C39.615 14.0419 39.4007 14.0273 39.159 14.0273C38.8 14.0273 38.4813 14.0886 38.2084 14.2102C37.9355 14.3317 37.7048 14.4996 37.5216 14.7084C37.3385 14.9172 37.1993 15.1663 37.1059 15.4502C37.0134 15.7322 36.9667 16.0418 36.9667 16.3696C36.9667 17.0766 37.1571 17.6498 37.5344 18.0692C37.9117 18.4905 38.4795 18.7029 39.2194 18.7029C39.6571 18.7029 40.1059 18.6145 40.4282 18.4868C40.4282 18.4868 40.4897 18.4571 40.463 18.3853L40.2524 17.8066H40.2517ZM41.7451 15.9018C41.7859 15.6271 41.8612 15.3982 41.9795 15.2205C42.1566 14.9494 42.4264 14.8011 42.8055 14.8011C43.1846 14.8011 43.4355 14.9502 43.615 15.2205C43.7341 15.3991 43.7861 15.6363 43.8055 15.9018L41.7359 15.9015L41.7451 15.9018ZM44.6205 15.2974C44.5478 15.0245 44.3678 14.748 44.2506 14.6216C44.0637 14.422 43.8824 14.2809 43.7011 14.204C43.4393 14.0927 43.1577 14.0356 42.8733 14.0361C42.5125 14.0361 42.1846 14.0971 41.9191 14.2211C41.6535 14.346 41.43 14.5159 41.2542 14.7284C41.0786 14.9408 40.9465 15.1918 40.8623 15.4793C40.778 15.7632 40.7355 16.0745 40.7355 16.4005C40.7355 16.7339 40.7797 17.0434 40.8665 17.3236C40.9542 17.6057 41.0954 17.8529 41.2859 18.0581C41.4764 18.265 41.72 18.4262 42.013 18.5397C42.3042 18.6524 42.6577 18.7108 43.0625 18.7095C43.8976 18.7068 44.3372 18.5209 44.5167 18.4201C44.5487 18.4022 44.5789 18.3712 44.5412 18.282L44.3526 17.7527C44.3236 17.6738 44.2438 17.7024 44.2438 17.7024C44.0368 17.7797 43.7438 17.9185 43.057 17.9167C42.6082 17.9159 42.2767 17.7835 42.068 17.576C41.8555 17.3635 41.7493 17.054 41.7328 16.6145L44.6266 16.6167C44.6266 16.6167 44.7027 16.6159 44.7106 16.5416C44.7137 16.5108 44.8097 15.9482 44.6244 15.298L44.6205 15.2974ZM18.6132 15.9018C18.654 15.6271 18.7295 15.3982 18.8476 15.2205C19.0249 14.9494 19.2945 14.8011 19.6736 14.8011C20.0527 14.8011 20.3037 14.9502 20.4832 15.2205C20.602 15.3991 20.654 15.6363 20.6736 15.9018L18.604 15.9015L18.6132 15.9018ZM21.4886 15.2974C21.4161 15.0245 21.2359 14.748 21.1187 14.6216C20.9319 14.422 20.7505 14.2809 20.5692 14.204C20.3075 14.0927 20.0258 14.0356 19.7414 14.0361C19.3806 14.0361 19.0527 14.0971 18.7872 14.2211C18.5216 14.346 18.2982 14.5159 18.1223 14.7284C17.9471 14.9408 17.8147 15.1918 17.7304 15.4793C17.6463 15.7632 17.604 16.0745 17.604 16.4005C17.604 16.7339 17.6478 17.0434 17.7352 17.3236C17.8227 17.6057 17.9641 17.8529 18.1527 18.0581C18.3432 18.265 18.5868 18.4262 18.8799 18.5397C19.1711 18.6524 19.5227 18.7108 19.9293 18.7095C20.7645 18.7068 21.204 18.5209 21.3835 18.4201C21.4154 18.4022 21.4458 18.3712 21.4079 18.282L21.2192 17.7527C21.1901 17.6738 21.1103 17.7024 21.1103 17.7024C20.9033 17.7797 20.6103 17.9185 19.9234 17.9167C19.4766 17.9159 19.1432 17.7835 18.9344 17.576C18.722 17.3635 18.6158 17.054 18.5993 16.6145L21.493 16.6167C21.493 16.6167 21.5692 16.6159 21.5771 16.5416C21.5802 16.5108 21.6762 15.9482 21.4907 15.298L21.4886 15.2974ZM12.3678 17.7883C12.2544 17.6978 12.2386 17.6756 12.2011 17.6168C12.1438 17.5284 12.1145 17.4026 12.1145 17.2414C12.1145 16.9886 12.1987 16.8055 12.3727 16.6828C12.3709 16.6831 12.6218 16.4667 13.2115 16.474C13.474 16.4787 13.7359 16.501 13.9954 16.5408V17.854H13.9958C13.9958 17.854 13.6295 17.933 13.2156 17.9579C12.6277 17.9932 12.3676 17.7886 12.3694 17.7892L12.3678 17.7883ZM13.5179 15.7553C13.4007 15.7467 13.2487 15.7425 13.0674 15.7425C12.8201 15.7425 12.5802 15.7733 12.3568 15.8337C12.1315 15.8945 11.9282 15.9886 11.7542 16.1139C11.5797 16.2384 11.4362 16.4013 11.3348 16.5901C11.2324 16.7806 11.1802 17.004 11.1802 17.2568C11.1802 17.5132 11.2247 17.7348 11.3126 17.9161C11.3988 18.096 11.5285 18.2515 11.6899 18.3685C11.8505 18.4853 12.0489 18.5718 12.2778 18.6231C12.5049 18.6749 12.7614 18.7011 13.0434 18.7011C13.3401 18.7011 13.635 18.6762 13.9207 18.628C14.164 18.586 14.4065 18.5389 14.6478 18.4866C14.7441 18.4645 14.8511 18.4353 14.8511 18.4353C14.9225 18.4172 14.917 18.3408 14.917 18.3408L14.9154 15.7035C14.9154 15.1247 14.7608 14.6943 14.4557 14.4287C14.1516 14.1632 13.7066 14.0295 13.1297 14.0295C12.9136 14.0295 12.5637 14.0588 12.3549 14.1007C12.3549 14.1007 11.7249 14.2231 11.4648 14.4267C11.4648 14.4267 11.4077 14.4619 11.4388 14.5416L11.644 15.091C11.6694 15.1623 11.7388 15.1379 11.7388 15.1379C11.7388 15.1379 11.7606 15.1293 11.7863 15.1141C12.3412 14.8119 13.0445 14.8211 13.0445 14.8211C13.3559 14.8211 13.5976 14.8842 13.7588 15.0079C13.9165 15.1289 13.9969 15.3119 13.9969 15.6965V15.8187C13.7496 15.7828 13.5207 15.7621 13.5207 15.7621L13.5179 15.7553ZM36.778 14.2663C36.7822 14.2566 36.7844 14.2462 36.7844 14.2357C36.7845 14.2252 36.7824 14.2148 36.7784 14.2051C36.7743 14.1954 36.7684 14.1866 36.7609 14.1792C36.7533 14.1719 36.7444 14.1661 36.7346 14.1623C36.6853 14.1436 36.4397 14.0918 36.2511 14.08C35.8885 14.0573 35.687 14.1185 35.5057 14.1998C35.3266 14.2806 35.1284 14.4104 35.0185 14.5606L35.0181 14.209C35.0181 14.1606 34.9839 14.1216 34.9352 14.1216H34.1952C34.1473 14.1216 34.1125 14.1606 34.1125 14.209V18.513C34.1125 18.5363 34.1218 18.5585 34.1382 18.575C34.1546 18.5914 34.1769 18.6007 34.2002 18.6007H34.9584C34.9817 18.6007 35.0039 18.5914 35.0203 18.575C35.0368 18.5585 35.046 18.5362 35.046 18.513V16.3518C35.046 16.0624 35.0778 15.7749 35.1414 15.5936C35.204 15.4143 35.2892 15.2712 35.3941 15.1687C35.4943 15.0696 35.6168 14.9961 35.7513 14.9544C35.8775 14.9182 36.0082 14.8998 36.1396 14.8998C36.2907 14.8998 36.4564 14.9386 36.4564 14.9386C36.5121 14.9449 36.543 14.9108 36.5619 14.8606C36.6115 14.7286 36.7524 14.3331 36.7799 14.2544" fill="#FFFFFE"/>
<path fill-rule="evenodd" clip-rule="evenodd" d="M29.6962 12.2798C29.6024 12.2515 29.5071 12.2289 29.4106 12.2121C29.2809 12.1904 29.1495 12.1802 29.018 12.1817C28.4954 12.1817 28.0835 12.3293 27.7943 12.6208C27.5071 12.9102 27.3117 13.3511 27.2137 13.9311L27.1784 14.1269H26.5225C26.5225 14.1269 26.4425 14.1236 26.4256 14.211L26.3179 14.8117C26.3104 14.8692 26.3352 14.9051 26.4121 14.9047H27.0505L26.4027 18.5207C26.352 18.8119 26.294 19.0514 26.2297 19.2329C26.1663 19.4121 26.1044 19.5463 26.0282 19.6437C25.9544 19.7381 25.8844 19.8075 25.7637 19.848C25.6641 19.8815 25.5494 19.8969 25.4238 19.8969C25.3538 19.8969 25.2608 19.8851 25.1921 19.8714C25.1234 19.8578 25.0877 19.8425 25.0363 19.8208C25.0363 19.8208 24.9614 19.7923 24.9319 19.8674C24.9079 19.9287 24.7377 20.3967 24.7176 20.4545C24.6971 20.5117 24.7258 20.5567 24.7621 20.5697C24.8471 20.6001 24.9103 20.6196 25.026 20.6469C25.1868 20.6848 25.3223 20.6871 25.4493 20.6871C25.7152 20.6871 25.9575 20.6498 26.1584 20.5773C26.3606 20.5042 26.5366 20.3769 26.6923 20.2045C26.8606 20.0186 26.9665 19.824 27.0678 19.5584C27.168 19.2952 27.2533 18.9685 27.3216 18.5877L27.9725 14.9047H28.9242C28.9242 14.9047 29.0044 14.9077 29.0211 14.8207L29.1288 14.2199C29.1363 14.1624 29.1117 14.1265 29.0344 14.1269H28.1108C28.1154 14.106 28.1573 13.7811 28.2634 13.4752C28.3086 13.3447 28.3938 13.2393 28.4659 13.167C28.5333 13.0981 28.6163 13.0465 28.7079 13.0164C28.8083 12.9854 28.9129 12.9703 29.018 12.9718C29.1049 12.9718 29.1903 12.9822 29.2553 12.9958C29.3449 13.0148 29.3797 13.0249 29.4031 13.0318C29.4973 13.0606 29.5099 13.0327 29.5284 12.9871L29.7493 12.3806C29.772 12.3153 29.7167 12.2879 29.6962 12.2798ZM16.7888 18.5284C16.7888 18.5767 16.7544 18.6161 16.706 18.6161H15.9399C15.8914 18.6161 15.857 18.5767 15.857 18.5284V12.3621C15.857 12.3139 15.8914 12.2749 15.9399 12.2749H16.706C16.7544 12.2749 16.7888 12.3139 16.7888 12.3621V18.5284Z" fill="#FFFFFE"/>
</g>
</svg>
